<?xml version="1.0" encoding="iso-8859-1"?>
<!-- Generator: Adobe Illustrator 17.1.0, SVG Export Plug-In . SVG Version: 6.00 Build 0)  -->
<!DOCTYPE svg PUBLIC "-//W3C//DTD SVG 1.1//EN" "http://www.w3.org/Graphics/SVG/1.1/DTD/svg11.dtd">
<svg version="1.1" id="Capa_1" xmlns="http://www.w3.org/2000/svg" xmlns:xlink="http://www.w3.org/1999/xlink" x="0px" y="0px"
	 viewBox="0 0 171.587 171.587" style="enable-background:new 0 0 171.587 171.587;" xml:space="preserve">
<path style="fill:#000002;" d="M152.169,171.587H19.419c-1.381,0-2.5-1.119-2.5-2.5V84.562H2.825c-1.021,0-1.938-0.621-2.319-1.567
	c-0.381-0.947-0.147-2.031,0.589-2.737L84.063,0.696c0.967-0.928,2.494-0.928,3.461,0l82.969,79.562
	c0.736,0.706,0.97,1.79,0.589,2.737c-0.381,0.947-1.299,1.567-2.319,1.567h-14.094v84.525
	C154.669,170.468,153.55,171.587,152.169,171.587z M115.676,166.587h33.993v-37.545h-33.993V166.587z M51.426,166.587h59.25v-37.545
	h-59.25V166.587z M37.426,166.587h9v-2.874h-9V166.587z M21.919,166.587h10.507v-37.545H21.919V166.587z M37.426,158.713h9v-4.188
	h-9V158.713z M37.426,149.526h9v-4.188h-9V149.526z M37.426,140.338h9v-4.188h-9V140.338z M37.426,131.151h9v-2.109h-9V131.151z
	 M113.176,124.042h36.493v-39.48h-44.16v39.48H113.176z M91.509,124.042h9v-3h-9V124.042z M66.676,124.042h19.833v-39.48H66.676
	V124.042z M48.926,124.042h12.75v-39.48H21.919v39.48H48.926z M91.509,116.042h9v-4.667h-9V116.042z M91.509,106.375h9v-4.667h-9
	V106.375z M91.509,96.708h9v-4.667h-9V96.708z M91.509,87.042h9v-2.48h-9V87.042z M152.169,79.562h10.375l-26.868-25.765v25.765
	H152.169z M103.009,79.562h27.667V49.123c0-0.04,0.001-0.079,0.003-0.117l-24.271-23.274H65.179L39.676,50.188v29.374H103.009z
	 M19.419,79.562h15.257V54.983L9.044,79.562H19.419z M70.393,20.731h30.801l-15.4-14.768L70.393,20.731z"/>
<g>
</g>
<g>
</g>
<g>
</g>
<g>
</g>
<g>
</g>
<g>
</g>
<g>
</g>
<g>
</g>
<g>
</g>
<g>
</g>
<g>
</g>
<g>
</g>
<g>
</g>
<g>
</g>
<g>
</g>
</svg>
