<?xml version="1.0" encoding="iso-8859-1"?>
<!-- Generator: Adobe Illustrator 18.0.0, SVG Export Plug-In . SVG Version: 6.00 Build 0)  -->
<!DOCTYPE svg PUBLIC "-//W3C//DTD SVG 1.1//EN" "http://www.w3.org/Graphics/SVG/1.1/DTD/svg11.dtd">
<svg version="1.1" id="Capa_1" xmlns="http://www.w3.org/2000/svg" xmlns:xlink="http://www.w3.org/1999/xlink" x="0px" y="0px"
	 viewBox="0 0 304.508 304.508" style="enable-background:new 0 0 304.508 304.508;" xml:space="preserve">
<path d="M283.446,46.254H21.062C9.448,46.254,0,55.703,0,67.317v184.937c0,3.313,2.687,6,6,6s6-2.687,6-6v-21.666h67.649v21.666
	c0,3.313,2.687,6,6,6s6-2.687,6-6v-174h121.209v174c0,3.313,2.687,6,6,6c3.314,0,6-2.687,6-6v-21.666h67.649v21.666
	c0,3.313,2.686,6,6,6c3.313,0,6-2.687,6-6V67.317C304.508,55.703,295.06,46.254,283.446,46.254z M79.649,218.588H12v-28h67.649
	V218.588z M79.649,178.588H12v-28h67.649V178.588z M79.649,138.588H12v-28h67.649V138.588z M79.649,67.377v31.211H12V67.317
	c0-4.998,4.065-9.063,9.062-9.063h60.126C79.664,62.527,79.634,66.479,79.649,67.377z M91.684,66.254
	c0.135-1.703,0.683-4.954,2.368-6.684c0.551-0.565,1.535-1.316,3.72-1.316h108.965c2.17,0,3.15,0.739,3.699,1.295
	c1.684,1.706,2.252,4.916,2.389,6.705H91.684z M292.508,218.588h-67.649v-28h67.649V218.588z M292.508,178.588h-67.649v-28h67.649
	V178.588z M292.508,138.588h-67.649v-28h67.649V138.588z M292.508,98.588h-67.649V67.377c0.016-0.898-0.015-4.85-1.538-9.123h60.126
	c4.996,0,9.062,4.065,9.062,9.063V98.588z"/>
<g>
</g>
<g>
</g>
<g>
</g>
<g>
</g>
<g>
</g>
<g>
</g>
<g>
</g>
<g>
</g>
<g>
</g>
<g>
</g>
<g>
</g>
<g>
</g>
<g>
</g>
<g>
</g>
<g>
</g>
</svg>
