<?xml version="1.0" encoding="iso-8859-1"?>
<!-- Generator: Adobe Illustrator 19.0.0, SVG Export Plug-In . SVG Version: 6.00 Build 0)  -->
<svg version="1.1" id="Layer_1" xmlns="http://www.w3.org/2000/svg" xmlns:xlink="http://www.w3.org/1999/xlink" x="0px" y="0px"
	 viewBox="0 0 511.999 511.999" style="enable-background:new 0 0 511.999 511.999;" xml:space="preserve">
<g>
	<g>
		<path d="M437.975,220.484H266.198v-53.965h29.242c64.447,0,116.878-52.431,116.878-116.878V10.199
			C412.318,4.566,407.752,0,402.119,0h-39.441c-47.453,0-88.388,28.427-106.679,69.146C237.709,28.427,196.773,0,149.32,0h-39.441
			C104.246,0,99.68,4.566,99.68,10.199v39.441c0,64.447,52.431,116.878,116.878,116.878H245.8v53.965H74.023
			c-5.633,0-10.199,4.566-10.199,10.199v69.125c0,5.633,4.566,10.199,10.199,10.199h29.91l23.349,160.225
			c3.47,23.811,25.743,41.767,51.809,41.767h153.817c26.066,0,48.339-17.956,51.809-41.767l23.349-160.225h29.91
			c5.633,0,10.199-4.566,10.199-10.199v-69.125C448.174,225.051,443.608,220.484,437.975,220.484z M266.198,116.878
			c0-53.199,43.28-96.479,96.479-96.479h29.242v29.242c0,53.199-43.28,96.479-96.479,96.479h-14.818l54.754-54.754
			c3.983-3.983,3.983-10.441,0-14.425c-3.983-3.982-10.441-3.982-14.425,0l-54.753,54.755V116.878z M148.726,63.472l82.649,82.649
			h-14.818c-53.199,0-96.479-43.28-96.479-96.48V20.398h29.242c53.2,0,96.48,43.28,96.48,96.479v14.818l-82.649-82.649
			c-3.983-3.983-10.441-3.983-14.425,0C144.743,53.03,144.743,59.488,148.726,63.472z M364.531,467.292
			c-2.019,13.859-15.615,24.31-31.624,24.31H179.091c-16.009,0-29.604-10.451-31.624-24.31l-22.921-157.284h262.905L364.531,467.292
			z M427.777,289.609H84.222v-48.727h343.555V289.609z"/>
	</g>
</g>
<g>
	<g>
		<path d="M363.272,49.047c-3.983-3.983-10.44-3.984-14.424,0l-4.008,4.007c-3.983,3.983-3.984,10.44,0,14.424
			c1.991,1.992,4.601,2.987,7.212,2.987c2.61,0,5.22-0.995,7.212-2.987l4.008-4.007C367.255,59.488,367.256,53.031,363.272,49.047z"
			/>
	</g>
</g>
<g>
</g>
<g>
</g>
<g>
</g>
<g>
</g>
<g>
</g>
<g>
</g>
<g>
</g>
<g>
</g>
<g>
</g>
<g>
</g>
<g>
</g>
<g>
</g>
<g>
</g>
<g>
</g>
<g>
</g>
</svg>
