<?xml version='1.0' encoding='iso-8859-1'?>
<!DOCTYPE svg PUBLIC '-//W3C//DTD SVG 1.1//EN' 'http://www.w3.org/Graphics/SVG/1.1/DTD/svg11.dtd'>
<svg version="1.1" xmlns="http://www.w3.org/2000/svg" viewBox="0 0 479.692 479.692" xmlns:xlink="http://www.w3.org/1999/xlink" enable-background="new 0 0 479.692 479.692">
  <g>
    <path d="m171.344,228.395c-17.645,0-32,14.355-32,32s14.355,32 32,32 32-14.355 32-32-14.355-32-32-32zm0,54c-12.131,0-22-9.869-22-22s9.869-22 22-22 22,9.869 22,22-9.869,22-22,22z"/>
    <path d="m308.344,228.395c-17.645,0-32,14.355-32,32s14.355,32 32,32 32-14.355 32-32-14.355-32-32-32zm0,54c-12.131,0-22-9.869-22-22s9.869-22 22-22 22,9.869 22,22-9.869,22-22,22z"/>
    <path d="m86.627,171.172l11.114,8.701c0.905,0.708 1.993,1.063 3.082,1.063s2.177-0.354 3.082-1.063l11.114-8.701c1.211-0.948 1.918-2.399 1.918-3.937v-17.376c0-2.761-2.238-5-5-5h-22.228c-2.762,0-5,2.239-5,5v17.376c0,1.538 0.707,2.99 1.918,3.937zm8.082-16.313h12.229v9.94l-6.114,4.787-6.114-4.787v-9.94z"/>
    <path d="m115.02,211.617l-11.114-8.701c-1.811-1.417-4.354-1.417-6.164,0l-11.114,8.701c-1.211,0.948-1.918,2.399-1.918,3.937v17.376c0,2.761 2.238,5 5,5h22.229c2.762,0 5-2.239 5-5v-17.376c-0.001-1.537-0.708-2.989-1.919-3.937zm-8.082,16.313h-12.229v-9.94l6.114-4.787 6.114,4.787v9.94z"/>
    <path d="m112.344,194.476l8.701,11.115c0.948,1.21 2.4,1.918 3.938,1.918h17.376c2.762,0 5-2.239 5-5v-22.229c0-2.761-2.238-5-5-5h-17.376c-1.537,0-2.989,0.707-3.937,1.918l-8.701,11.114c-1.418,1.81-1.418,4.354-0.001,6.164zm15.074-9.196h9.94v12.229h-9.94l-4.787-6.115 4.787-6.114z"/>
    <path d="m76.664,207.509c1.537,0 2.989-0.708 3.938-1.918l8.701-11.115c1.417-1.81 1.417-4.354-0.001-6.164l-8.701-11.114c-0.947-1.211-2.399-1.918-3.937-1.918h-17.376c-2.762,0-5,2.239-5,5v22.229c0,2.761 2.238,5 5,5h17.376zm-12.376-22.229h9.94l4.787,6.114-4.787,6.115h-9.94v-12.229z"/>
    <path d="m478.49,314.805l-22.671-120.22c-0.269-25.979-13.38-48.926-33.279-62.796l-2.234-23.062c-0.873-9.026-8.371-15.832-17.439-15.832h-49.046c-9.068,0-16.565,6.806-17.438,15.832l-1.917,19.789h-189.243l-1.917-19.788c-0.873-9.026-8.371-15.832-17.439-15.832h-49.046c-9.068,0-16.565,6.806-17.438,15.832l-2.234,23.059c-19.902,13.87-33.016,36.818-33.284,62.8l-22.661,120.218c-3.083,16.351-0.221,31.766 8.279,44.577 7.578,11.422 19.31,20.096 33.033,24.423 6.336,1.998 12.853,2.993 19.291,2.993 7.51,0 14.913-1.355 21.784-4.053 14.313-5.621 25.503-16.606 32.356-31.772l21.619-47.854c9.294,7.363 21.026,11.776 33.776,11.776 27.506,0 50.304-20.487 53.971-47h29.057c3.667,26.513 26.465,47 53.971,47 12.752,0 24.485-4.414 33.78-11.779l21.621,47.856c6.851,15.163 18.036,26.149 32.347,31.77 6.873,2.699 14.275,4.055 21.787,4.055 6.435,0 12.95-0.995 19.282-2.99 13.725-4.325 25.459-12.998 33.041-24.421 8.505-12.811 11.372-28.227 8.291-44.581zm-37.651-119.41c0,34.462-28.037,62.5-62.5,62.5-5.346,0-10.605-0.67-15.695-1.99-2.06-25.124-21.221-45.477-45.799-49.343-0.663-3.668-1.006-7.406-1.006-11.167 0-34.462 28.037-62.5 62.5-62.5s62.5,28.038 62.5,62.5zm-262.773,10.929c0.511-3.609 0.778-7.261 0.778-10.929 0-19.936-7.571-38.133-19.982-51.88h161.959c-12.411,13.747-19.982,31.944-19.982,51.88 0,3.669 0.267,7.321 0.778,10.93-24.423,3.022-43.881,22.253-47.245,46.57h-29.057c-3.363-24.318-22.824-43.551-47.249-46.571zm175.755-98.429h49.046c1.305,0 2.384,0.979 2.51,2.278l1.269,13.099c-8.775-3.457-18.318-5.376-28.306-5.376-9.984,0-19.523,1.919-28.296,5.373l1.268-13.095c0.126-1.3 1.204-2.279 2.509-2.279zm-279.509,2.277c0.126-1.298 1.204-2.277 2.509-2.277h49.046c1.305,0 2.384,0.979 2.51,2.278l1.269,13.097c-8.774-3.455-18.315-5.375-28.301-5.375s-19.527,1.919-28.301,5.375l1.268-13.098zm27.032,22.723c34.463,0 62.5,28.038 62.5,62.5 0,3.762-0.343,7.5-1.006,11.168-24.575,3.869-43.733,24.219-45.794,49.341-5.092,1.321-10.353,1.991-15.7,1.991-34.463,0-62.5-28.038-62.5-62.5s28.037-62.5 62.5-62.5zm.936,211.901c-11.512,25.471-36.049,30.757-55.252,24.703-19.203-6.055-36.261-24.455-31.083-51.915l16.395-86.979c12.848,25.077 38.946,42.29 69.005,42.29 5.615,0 11.156-0.603 16.564-1.783 1.474,7.359 4.436,14.183 8.555,20.154l-24.184,53.53zm69.064-44.901c-21.78,0-39.5-17.72-39.5-39.5s17.72-39.5 39.5-39.5 39.5,17.72 39.5,39.5-17.72,39.5-39.5,39.5zm137,0c-21.78,0-39.5-17.72-39.5-39.5s17.72-39.5 39.5-39.5 39.5,17.72 39.5,39.5-17.72,39.5-39.5,39.5zm124.308,69.606c-19.207,6.052-43.733,0.76-55.237-24.704l-24.187-53.536c4.117-5.969 7.079-12.792 8.552-20.148 5.407,1.18 10.946,1.782 16.559,1.782 30.061,0 56.16-17.215 69.007-42.294l16.403,86.983c5.174,27.464-11.89,45.864-31.097,51.917z"/>
    <path d="m378.339,185.476c10.499,0 19.041-8.542 19.041-19.041s-8.542-19.041-19.041-19.041-19.041,8.542-19.041,19.041 8.542,19.041 19.041,19.041zm0-28.081c4.985,0 9.041,4.056 9.041,9.041 0,4.985-4.056,9.041-9.041,9.041s-9.041-4.056-9.041-9.041c0-4.985 4.056-9.041 9.041-9.041z"/>
    <path d="m378.339,205.313c-10.499,0-19.041,8.542-19.041,19.041s8.542,19.041 19.041,19.041 19.041-8.542 19.041-19.041-8.542-19.041-19.041-19.041zm0,28.082c-4.985,0-9.041-4.056-9.041-9.041 0-4.985 4.056-9.041 9.041-9.041s9.041,4.056 9.041,9.041c0,4.985-4.055,9.041-9.041,9.041z"/>
    <path d="m407.298,176.354c-10.499,0-19.04,8.542-19.04,19.041s8.541,19.041 19.04,19.041 19.041-8.542 19.041-19.041-8.542-19.041-19.041-19.041zm0,28.081c-4.984,0-9.04-4.056-9.04-9.041 0-4.985 4.056-9.041 9.04-9.041 4.985,0 9.041,4.056 9.041,9.041 0,4.986-4.055,9.041-9.041,9.041z"/>
    <path d="m368.421,195.395c0-10.499-8.542-19.041-19.041-19.041s-19.041,8.542-19.041,19.041 8.542,19.041 19.041,19.041 19.041-8.542 19.041-19.041zm-19.041,9.04c-4.985,0-9.041-4.056-9.041-9.041 0-4.985 4.056-9.041 9.041-9.041s9.041,4.056 9.041,9.041c0,4.986-4.055,9.041-9.041,9.041z"/>
    <path d="m216.567,191.395h-11c-2.762,0-5,2.239-5,5s2.238,5 5,5h11c2.762,0 5-2.239 5-5s-2.239-5-5-5z"/>
    <path d="m263.121,201.395h11c2.762,0 5-2.239 5-5s-2.238-5-5-5h-11c-2.762,0-5,2.239-5,5s2.239,5 5,5z"/>
  </g>
</svg>
