<?xml version="1.0" encoding="iso-8859-1"?>
<!-- Generator: Adobe Illustrator 19.1.0, SVG Export Plug-In . SVG Version: 6.00 Build 0)  -->
<svg version="1.1" id="Capa_1" xmlns="http://www.w3.org/2000/svg" xmlns:xlink="http://www.w3.org/1999/xlink" x="0px" y="0px"
	 viewBox="0 0 289.739 289.739" style="enable-background:new 0 0 289.739 289.739;" xml:space="preserve">
<g>
	<g>
		<path d="M283.958,0c-3.622,0-6.036,2.414-6.036,6.036v164.185H197.64V6.036c0-3.622-2.414-6.036-6.036-6.036
			s-6.036,2.414-6.036,6.036v164.185h-80.282V6.036c0-3.622-2.414-6.036-6.036-6.036c-3.622,0-6.036,2.414-6.036,6.036v164.185
			H12.328V6.036C12.328,2.414,9.914,0,6.292,0S0.256,2.414,0.256,6.036v277.666c0,3.622,2.414,6.036,6.036,6.036
			s6.036-2.414,6.036-6.036v-34.407H92.61v34.407c0,3.622,2.414,6.036,6.036,6.036c3.622,0,6.036-2.414,6.036-6.036v-34.407h80.282
			v34.407c0,3.622,2.414,6.036,6.036,6.036c3.622,0,6.036-2.414,6.036-6.036v-34.407h80.282v34.407c0,3.622,2.414,6.036,6.036,6.036
			c3.622,0,6.036-2.414,6.036-6.036V6.036C289.994,2.414,287.58,0,283.958,0z M12.328,237.223v-54.93H92.61v54.93H12.328z
			 M104.682,237.223v-54.93h80.282v54.93H104.682z M197.64,237.223v-54.93h80.282v54.93H197.64z"/>
		<polygon points="49.753,190.141 40.698,194.97 41.905,198.592 49.149,194.97 49.149,194.97 49.149,229.98 53.978,229.98 
			53.978,190.141 		"/>
		<path d="M137.881,225.755L137.881,225.755l3.018-3.018c8.451-7.847,13.883-13.883,13.883-21.127
			c0-5.433-3.622-11.469-12.073-11.469c-4.829,0-8.451,1.811-11.469,4.225l1.811,3.622c1.811-1.811,4.829-3.622,8.451-3.622
			c6.036,0,7.847,3.622,7.847,7.847c0,6.036-4.829,11.469-15.091,21.127l-4.225,4.225v3.018l0,0h25.352v-4.225h-17.505V225.755z"/>
		<path d="M239.29,208.25L239.29,208.25c4.829-1.811,7.243-5.433,7.243-9.658c0-4.829-3.622-9.658-11.469-9.658
			c-4.225,0-8.451,1.811-10.262,3.018l1.207,4.225c1.811-1.207,4.829-2.414,7.847-2.414c4.829,0,7.243,3.018,7.243,6.036
			c0,4.829-4.829,6.64-9.054,6.64h-3.018v4.225h3.018c5.433,0,10.262,2.414,10.262,7.847c0,3.018-1.811,7.847-9.054,7.847
			c-3.622,0-7.243-1.811-9.054-2.414l-1.207,4.225c1.811,1.207,6.036,2.414,10.262,2.414c9.658,0,14.487-5.433,14.487-12.072
			C248.344,213.078,244.722,209.457,239.29,208.25z"/>
	</g>
</g>
<g>
</g>
<g>
</g>
<g>
</g>
<g>
</g>
<g>
</g>
<g>
</g>
<g>
</g>
<g>
</g>
<g>
</g>
<g>
</g>
<g>
</g>
<g>
</g>
<g>
</g>
<g>
</g>
<g>
</g>
</svg>
