<?xml version="1.0" encoding="iso-8859-1"?>
<!-- Generator: Adobe Illustrator 19.0.0, SVG Export Plug-In . SVG Version: 6.00 Build 0)  -->
<svg version="1.1" id="Layer_1" xmlns="http://www.w3.org/2000/svg" xmlns:xlink="http://www.w3.org/1999/xlink" x="0px" y="0px"
	 viewBox="0 0 512 512" style="enable-background:new 0 0 512 512;" xml:space="preserve">
<g>
	<g>
		<g>
			<path d="M490.41,493.494h-15.422V9.253c0-5.111-4.143-9.253-9.253-9.253H46.265c-5.11,0-9.253,4.142-9.253,9.253v484.241H21.59
				c-5.11,0-9.253,4.142-9.253,9.253S16.48,512,21.59,512H490.41c5.11,0,9.253-4.142,9.253-9.253S495.52,493.494,490.41,493.494z
				 M246.747,493.494h-92.53v-326.94h92.53V493.494z M357.783,493.494h-92.53v-326.94h92.53V493.494z M456.482,493.494h-80.193
				V157.301c0-5.111-4.143-9.253-9.253-9.253H144.964c-5.11,0-9.253,4.142-9.253,9.253v336.193H55.518V18.506h400.964V493.494z"/>
			<path d="M231.325,117.205h49.349c5.11,0,9.253-4.142,9.253-9.253V58.602c0-5.111-4.143-9.253-9.253-9.253h-49.349
				c-5.11,0-9.253,4.142-9.253,9.253v49.349C222.072,113.063,226.215,117.205,231.325,117.205z M240.578,67.855h30.843v30.843
				h-30.843V67.855z"/>
			<path d="M416.384,326.94c8.502,0,15.42-6.916,15.424-15.425c-0.004-8.502-6.921-15.418-15.422-15.418
				c-8.502,0-15.42,6.916-15.423,15.425C400.966,320.023,407.884,326.94,416.384,326.94z"/>
			<path d="M416.384,376.289c8.502,0,15.42-6.916,15.424-15.425c-0.004-8.502-6.921-15.418-15.422-15.418
				c-8.502,0-15.42,6.916-15.423,15.425C400.966,369.373,407.884,376.289,416.384,376.289z"/>
		</g>
	</g>
</g>
<g>
</g>
<g>
</g>
<g>
</g>
<g>
</g>
<g>
</g>
<g>
</g>
<g>
</g>
<g>
</g>
<g>
</g>
<g>
</g>
<g>
</g>
<g>
</g>
<g>
</g>
<g>
</g>
<g>
</g>
</svg>
