<?xml version="1.0" encoding="iso-8859-1"?>
<!-- Generator: Adobe Illustrator 19.0.0, SVG Export Plug-In . SVG Version: 6.00 Build 0)  -->
<svg version="1.1" id="Layer_1" xmlns="http://www.w3.org/2000/svg" xmlns:xlink="http://www.w3.org/1999/xlink" x="0px" y="0px"
	 viewBox="0 0 512 512" style="enable-background:new 0 0 512 512;" xml:space="preserve">
<g>
	<g>
		<path d="M494.644,140.355v-27.56c0-14.345-11.648-26.016-25.965-26.016h-60.884c-14.317,0-25.965,11.671-25.965,26.016v26.052
			H130.169v-26.052c0-14.345-11.648-26.016-25.965-26.016H43.321c-14.317,0-25.965,11.671-25.965,26.016v27.56
			C7.263,143.931,0,153.553,0,164.867v234.336c0,14.346,11.66,26.018,25.993,26.018h460.015c14.333,0,25.993-11.672,25.993-26.018
			V164.867C512,153.553,504.737,143.931,494.644,140.355z M399.186,112.796c0-4.775,3.862-8.66,8.609-8.66h60.883
			c4.747,0,8.609,3.884,8.609,8.66v26.052h-78.102V112.796z M34.712,112.796c0-4.775,3.862-8.66,8.609-8.66h60.884
			c4.747,0,8.609,3.884,8.609,8.66v26.052H34.712V112.796z M494.644,399.202c0,4.777-3.874,8.662-8.637,8.662H25.993
			c-4.763,0-8.637-3.886-8.637-8.662V164.867c0-4.777,3.874-8.663,8.637-8.663h0.041h95.458h269.017h95.458h0.041
			c4.763,0,8.637,3.887,8.637,8.663V399.202z"/>
	</g>
</g>
<g>
	<g>
		<path d="M294.169,282.56c-1.457-2.978-4.481-4.865-7.796-4.865h-60.047l58.145-72.68c2.994-3.743,2.387-9.204-1.355-12.198
			c-3.743-2.993-9.203-2.387-12.198,1.355l-69.424,86.78c-2.084,2.605-2.49,6.174-1.044,9.181c1.445,3.007,4.485,4.919,7.821,4.919
			h60.358l-49.852,64.096c-2.943,3.783-2.262,9.235,1.522,12.177c1.584,1.232,3.459,1.828,5.321,1.828
			c2.586,0,5.146-1.15,6.856-3.351l60.746-78.102C295.258,289.085,295.625,285.537,294.169,282.56z"/>
	</g>
</g>
<g>
	<g>
		<polygon points="451.254,199.593 451.254,173.559 433.898,173.559 433.898,199.593 407.864,199.593 407.864,216.949 
			433.898,216.949 433.898,242.983 451.254,242.983 451.254,216.949 477.288,216.949 477.288,199.593 		"/>
	</g>
</g>
<g>
	<g>
		<rect x="34.712" y="199.593" width="69.424" height="17.356"/>
	</g>
</g>
<g>
</g>
<g>
</g>
<g>
</g>
<g>
</g>
<g>
</g>
<g>
</g>
<g>
</g>
<g>
</g>
<g>
</g>
<g>
</g>
<g>
</g>
<g>
</g>
<g>
</g>
<g>
</g>
<g>
</g>
</svg>
