<?xml version="1.0" encoding="iso-8859-1"?>
<!-- Generator: Adobe Illustrator 17.1.0, SVG Export Plug-In . SVG Version: 6.00 Build 0)  -->
<!DOCTYPE svg PUBLIC "-//W3C//DTD SVG 1.1//EN" "http://www.w3.org/Graphics/SVG/1.1/DTD/svg11.dtd">
<svg version="1.1" id="Capa_1" xmlns="http://www.w3.org/2000/svg" xmlns:xlink="http://www.w3.org/1999/xlink" x="0px" y="0px"
	 viewBox="0 0 191.587 191.587" style="enable-background:new 0 0 191.587 191.587;" xml:space="preserve">
<path style="fill:#000001;" d="M183.624,81.342L100.975,2.087c-2.902-2.782-7.48-2.782-10.383,0L7.624,81.649
	c-2.21,2.119-2.909,5.369-1.768,8.21c1.143,2.841,3.896,4.703,6.959,4.703h9.094v89.525c0,4.142,3.357,7.5,7.5,7.5h132.75
	c4.143,0,7.5-3.358,7.5-7.5V94.562h9.094c0.005,0,0.012,0,0.02,0c4.143,0,7.5-3.358,7.5-7.5
	C186.272,84.769,185.244,82.718,183.624,81.342z M147.032,125.402c4.143,0,7.5,3.358,7.5,7.5s-3.357,7.5-7.5,7.5h-11.5v28.25
	c0,4.142-3.357,7.5-7.5,7.5s-7.5-3.358-7.5-7.5v-28.25h-50v28.25c0,4.142-3.357,7.5-7.5,7.5s-7.5-3.358-7.5-7.5v-28.25H44.537
	c-4.143,0-7.5-3.358-7.5-7.5s3.357-7.5,7.5-7.5h46.962v-30.84H44.537c-4.143,0-7.5-3.358-7.5-7.5s3.357-7.5,7.5-7.5h102.495
	c4.143,0,7.5,3.358,7.5,7.5s-3.357,7.5-7.5,7.5h-40.533v30.84H147.032z"/>
<g>
</g>
<g>
</g>
<g>
</g>
<g>
</g>
<g>
</g>
<g>
</g>
<g>
</g>
<g>
</g>
<g>
</g>
<g>
</g>
<g>
</g>
<g>
</g>
<g>
</g>
<g>
</g>
<g>
</g>
</svg>
