<?xml version="1.0" encoding="iso-8859-1"?>
<!-- Generator: Adobe Illustrator 16.0.0, SVG Export Plug-In . SVG Version: 6.00 Build 0)  -->
<!DOCTYPE svg PUBLIC "-//W3C//DTD SVG 1.1//EN" "http://www.w3.org/Graphics/SVG/1.1/DTD/svg11.dtd">
<svg version="1.1" id="Capa_1" xmlns="http://www.w3.org/2000/svg" xmlns:xlink="http://www.w3.org/1999/xlink" x="0px" y="0px"
	 width="621.35px" height="621.35px" viewBox="0 0 621.35 621.35" style="enable-background:new 0 0 621.35 621.35;"
	 xml:space="preserve">
<g>
	<g>
		<path d="M613.622,285.387L331.471,3.068C329.433,1.03,326.743,0,324.053,0c-2.689,0-5.379,1.03-7.417,3.068l-5.925,5.946
			l-5.925-5.946C302.705,1.03,300.015,0,297.326,0s-5.379,1.03-7.417,3.068L142.676,150.363V64.507
			c0-5.799-4.707-10.485-10.485-10.485h-21.012c-5.799,0-10.506,4.707-10.506,10.485v126.094c0,0.525,0.231,0.987,0.294,1.492
			L7.736,285.366c-4.098,4.097-4.098,10.758,0,14.855l14.855,14.856c2.059,2.059,4.749,3.066,7.417,3.066
			c2.689,0,5.379-1.029,7.417-3.066L310.647,41.709l273.221,273.369c2.06,2.059,4.749,3.066,7.418,3.066
			c2.668,0,5.379-1.029,7.417-3.066l14.855-14.856C617.719,296.125,617.719,289.484,613.622,285.387z"/>
		<path d="M499.693,537.303c0,23.197-18.806,42.023-42.023,42.023h-62.974V421.693c0-40.596-32.905-73.5-73.501-73.5h-21.012
			c-40.596,0-73.501,32.904-73.501,73.5v157.633h-62.973c-23.218,0-42.024-18.826-42.024-42.023V285.156L79.682,327.18v252.146
			c0,23.197,22.987,42.023,51.333,42.023h359.35c28.346,0,51.333-18.826,51.333-42.023V327.18l-42.004-42.023V537.303
			L499.693,537.303z M352.672,579.326h-83.965V421.693c0-17.355,14.12-31.477,31.477-31.477h21.012
			c17.356,0,31.477,14.121,31.477,31.477V579.326z"/>
	</g>
</g>
<g>
</g>
<g>
</g>
<g>
</g>
<g>
</g>
<g>
</g>
<g>
</g>
<g>
</g>
<g>
</g>
<g>
</g>
<g>
</g>
<g>
</g>
<g>
</g>
<g>
</g>
<g>
</g>
<g>
</g>
</svg>
