<?xml version="1.0" encoding="iso-8859-1"?>
<!-- Generator: Adobe Illustrator 16.0.0, SVG Export Plug-In . SVG Version: 6.00 Build 0)  -->
<!DOCTYPE svg PUBLIC "-//W3C//DTD SVG 1.1//EN" "http://www.w3.org/Graphics/SVG/1.1/DTD/svg11.dtd">
<svg version="1.1" id="Capa_1" xmlns="http://www.w3.org/2000/svg" xmlns:xlink="http://www.w3.org/1999/xlink" x="0px" y="0px"
	 width="612px" height="612px" viewBox="0 0 612 612" style="enable-background:new 0 0 612 612;" xml:space="preserve">
<g>
	<g>
		<path d="M496.907,387.041c-11.394,0-19.893-0.354-31.568-0.824l-5.933-0.236c-6.497-0.258-11.559-5.721-11.3-12.24
			c0.259-6.475,6.145-11.725,12.241-11.277l5.956,0.236c11.323,0.471,19.562,0.799,30.627,0.799
			c50.496,0,91.552-41.078,91.552-91.551c0-50.496-41.056-91.575-91.552-91.575c-13.254,0-26.201,2.896-38.489,8.569
			c-3.107,1.459-6.687,1.459-9.841,0.023c-3.131-1.436-5.462-4.143-6.403-7.439c-17.35-60.336-73.354-102.475-136.209-102.475
			c-50.119,0-95.13,43.881-120.578,84.937c-2.942,4.802-8.804,6.827-14.172,4.826c-12.5-4.708-25.424-7.11-38.442-7.11
			c-50.402,0-109.255,23.989-109.255,91.552c0,57.77,45.128,105.676,102.71,109.067c6.474,0.377,11.441,5.955,11.064,12.43
			c-0.377,6.473-6.05,11.465-12.43,11.064C54.851,381.695,0,323.455,0,253.255c0-68.834,53.392-115.093,132.819-115.093
			c12.712,0,25.354,1.86,37.689,5.556c29.568-44.022,79.075-88.208,135.479-88.208c68.952,0,130.842,43.504,154.736,107.23
			c11.699-3.908,23.823-5.885,36.183-5.885C560.351,156.854,612,208.48,612,271.971C612,335.438,560.374,387.041,496.907,387.041z"
			/>
		<g>
			<path d="M222.7,373.715L222.7,373.715c-0.071,0-0.565,0-0.636,0c-20.434-0.375-36.771-17.277-36.442-37.736
				c0.142-6.85,9.84-70.152,38.019-70.152c28.791,0.494,36.277,64.574,36.159,71.47C259.447,357.379,242.78,373.715,222.7,373.715z
				 M223.523,291.039c-6.215,8.216-14.148,33.852-14.36,45.363c-0.118,7.439,5.838,13.631,13.301,13.748l0.235,11.771V350.15
				c7.345,0,13.418-5.955,13.56-13.301C236.448,325.385,229.432,299.49,223.523,291.039z"/>
			<path d="M220.746,483.395L220.746,483.395c-0.071,0-0.588,0-0.659,0c-20.457-0.377-36.771-17.303-36.418-37.76
				c0.118-6.828,9.77-70.129,38.019-70.129c28.861,0.518,36.253,64.619,36.135,71.494
				C257.47,467.057,240.826,483.395,220.746,483.395z M221.569,400.717c-6.238,8.24-14.171,33.854-14.36,45.342
				c-0.141,7.461,5.814,13.652,13.277,13.795l0.259,11.77v-11.77c7.345,0,13.395-5.957,13.536-13.301
				C234.494,435.064,227.479,409.145,221.569,400.717z"/>
			<path d="M298.761,446.811L298.761,446.811c-0.071,0-0.589,0-0.659,0c-20.41-0.354-36.771-17.279-36.442-37.713
				c0.141-6.873,9.84-70.176,38.042-70.176c4.073,0.07,9.699,1.365,15.231,7.109c14.102,14.643,21.093,52.262,20.881,64.408
				C335.509,430.473,318.889,446.811,298.761,446.811z M299.585,364.158c-6.215,8.24-14.148,33.852-14.36,45.363
				c-0.118,7.439,5.838,13.631,13.301,13.748l0.259,11.771V423.27c7.344,0,13.395-5.932,13.512-13.254
				C312.509,398.787,305.423,372.633,299.585,364.158z"/>
			<path d="M296.784,556.49C296.76,556.49,296.76,556.49,296.784,556.49c-0.094,0-0.588,0-0.659,0
				c-20.434-0.377-36.771-17.279-36.442-37.736c0.118-6.852,9.77-70.178,38.042-70.178c4.073,0.07,9.699,1.365,15.231,7.109
				c14.102,14.643,21.093,52.262,20.882,64.41C333.484,540.152,316.864,556.49,296.784,556.49z M297.607,473.836
				c-6.238,8.24-14.172,33.854-14.36,45.34c-0.118,7.439,5.838,13.631,13.301,13.773l0.235,11.77v-11.77
				c7.345,0,13.395-5.957,13.536-13.301C310.531,508.465,303.446,482.311,297.607,473.836z"/>
			<path d="M372.963,386.264L372.963,386.264c-0.07,0-0.565,0-0.636,0c-20.434-0.4-36.771-17.303-36.441-37.736
				c0.141-6.875,9.84-70.177,38.019-70.177c28.885,0.518,36.277,64.597,36.159,71.495
				C409.688,369.926,393.044,386.264,372.963,386.264z M373.787,303.61c-6.215,8.216-14.148,33.853-14.36,45.365
				c-0.118,7.414,5.861,13.629,13.324,13.748l0.212,11.77v-11.77c7.345,0,13.418-5.957,13.56-13.301
				C386.734,337.934,379.719,312.037,373.787,303.61z"/>
			<path d="M371.032,495.918L371.032,495.918c-0.07,0-0.612,0-0.706,0c-20.41-0.377-36.748-17.303-36.371-37.76
				c0.118-6.803,9.652-70.152,37.995-70.152c28.862,0.541,36.254,64.596,36.136,71.494
				C407.71,479.604,391.09,495.918,371.032,495.918z M371.81,413.289c-6.145,8.285-14.148,34.135-14.313,45.293
				c-0.141,7.486,5.814,13.678,13.254,13.795l0.282,11.77v-11.77c7.345,0,13.372-5.955,13.513-13.301
				C384.757,447.918,377.647,421.811,371.81,413.289z"/>
		</g>
	</g>
</g>
<g>
</g>
<g>
</g>
<g>
</g>
<g>
</g>
<g>
</g>
<g>
</g>
<g>
</g>
<g>
</g>
<g>
</g>
<g>
</g>
<g>
</g>
<g>
</g>
<g>
</g>
<g>
</g>
<g>
</g>
</svg>
