<?xml version="1.0" encoding="iso-8859-1"?>
<!-- Generator: Adobe Illustrator 16.0.0, SVG Export Plug-In . SVG Version: 6.00 Build 0)  -->
<!DOCTYPE svg PUBLIC "-//W3C//DTD SVG 1.1//EN" "http://www.w3.org/Graphics/SVG/1.1/DTD/svg11.dtd">
<svg version="1.1" id="Capa_1" xmlns="http://www.w3.org/2000/svg" xmlns:xlink="http://www.w3.org/1999/xlink" x="0px" y="0px"
	 width="185.293px" height="185.292px" viewBox="0 0 185.293 185.292" style="enable-background:new 0 0 185.293 185.292;"
	 xml:space="preserve">
<g>
	<g>
		<g>
			<path d="M172.585,67.427h-11.379H150.58c6.441-1.752,11.212-7.594,11.212-14.582c0-2.06-0.418-4.023-1.167-5.818l5.013-9.258
				c0.489-0.896,0.562-1.964,0.195-2.917s-1.133-1.704-2.098-2.048l-16.44-5.876c-0.842-0.301-1.762-0.267-2.587,0.087
				l-15.427,6.761c-0.869,0.381-1.551,1.104-1.883,2c-0.328,0.895-0.28,1.889,0.145,2.745l4.715,9.683
				c-0.479,1.472-0.801,3.013-0.801,4.646c0,6.988,4.771,12.83,11.212,14.582h-10.63h-11.375c-1.938,0-3.504,1.569-3.504,3.504
				v54.844c0,1.931,1.566,3.505,3.504,3.505c1.93,0,3.504-1.574,3.504-3.505V74.438h4.367v107.35c0,1.934,1.57,3.504,3.504,3.504
				h29.174c1.934,0,3.505-1.57,3.505-3.504V74.435h4.37v51.336c0,1.938,1.57,3.504,3.504,3.504c1.938,0,3.504-1.566,3.504-3.504
				v-54.84C176.09,68.996,174.521,67.427,172.585,67.427z M146.248,33.992l11.283,4.033l-1.592,2.933
				c-2.58-2.029-5.79-3.291-9.314-3.291c-3.792,0-7.218,1.444-9.877,3.749l-1.314-2.69L146.248,33.992z M138.459,52.845
				c0-0.869,0.172-1.685,0.421-2.471h15.485c0.247,0.786,0.421,1.605,0.421,2.471c0,4.503-3.661,8.166-8.165,8.166
				C142.121,61.01,138.459,57.348,138.459,52.845z M135.544,81.949l18.894,26.685h-18.894V81.949z M149.835,178.281V126.36
				c0-1.938-1.567-3.505-3.505-3.505c-1.934,0-3.504,1.567-3.504,3.505v51.921h-7.282v-62.64h22.161v62.64H149.835z
				 M157.702,101.118l-18.894-26.683h18.894V101.118z"/>
		</g>
		<g>
			<path d="M95.49,0H12.702c-1.934,0-3.504,1.571-3.504,3.504v21.463v156.817c0,1.938,1.571,3.505,3.504,3.505h28.122h29.174H95.49
				c1.938,0,3.505-1.567,3.505-3.505V24.968V3.504C98.995,1.571,97.428,0,95.49,0z M16.206,7.008h75.78v14.455h-75.78V7.008z
				 M58.622,178.281V126.36c0-1.938-1.569-3.505-3.504-3.505c-1.934,0-3.504,1.567-3.504,3.505v51.921h-7.286V74.435h22.166v103.846
				H58.622z M73.501,178.281V74.435h4.37v51.336c0,1.938,1.569,3.504,3.504,3.504c1.934,0,3.504-1.566,3.504-3.504v-54.84
				c0-1.936-1.571-3.504-3.504-3.504H69.997H59.368c6.442-1.752,11.214-7.594,11.214-14.582c0-8.369-6.805-15.174-15.174-15.174
				c-8.369,0-15.174,6.805-15.174,15.174c0,6.988,4.774,12.83,11.214,14.582H40.82H29.441c-1.934,0-3.504,1.569-3.504,3.504v54.84
				c0,1.938,1.571,3.504,3.504,3.504c1.935,0,3.504-1.566,3.504-3.504V74.435h4.37v103.846H16.203V28.472h75.78v149.809H73.501z
				 M55.412,61.01c-4.504,0-8.166-3.662-8.166-8.166s3.662-8.165,8.166-8.165c4.503,0,8.165,3.662,8.165,8.165
				S59.916,61.01,55.412,61.01z"/>
		</g>
		<g>
			<path d="M81.376,10.73H29.45c-1.935,0-3.504,1.571-3.504,3.504c0,1.935,1.569,3.504,3.504,3.504h51.926
				c1.934,0,3.504-1.569,3.504-3.504C84.88,12.301,83.31,10.73,81.376,10.73z"/>
		</g>
	</g>
</g>
<g>
</g>
<g>
</g>
<g>
</g>
<g>
</g>
<g>
</g>
<g>
</g>
<g>
</g>
<g>
</g>
<g>
</g>
<g>
</g>
<g>
</g>
<g>
</g>
<g>
</g>
<g>
</g>
<g>
</g>
</svg>
