<?xml version="1.0" encoding="iso-8859-1"?>
<!-- Generator: Adobe Illustrator 19.0.0, SVG Export Plug-In . SVG Version: 6.00 Build 0)  -->
<svg version="1.1" id="Capa_1" xmlns="http://www.w3.org/2000/svg" xmlns:xlink="http://www.w3.org/1999/xlink" x="0px" y="0px"
	 viewBox="0 0 470 470" style="enable-background:new 0 0 470 470;" xml:space="preserve">
<g>
	<path d="M462.5,434.217c-12.674,0-24.3-5.896-31.896-16.174c-1.414-1.914-3.652-3.043-6.032-3.043
		c-2.389,0.002-4.628,1.136-6.04,3.054c-7.45,10.121-19.358,16.163-31.854,16.163c-12.489,0-24.412-6.046-31.896-16.174
		c-1.414-1.914-3.652-3.043-6.032-3.043s-4.618,1.129-6.032,3.043c-7.484,10.127-19.408,16.174-31.896,16.174
		c-12.65,0-24.264-5.896-31.863-16.175c-1.415-1.913-3.653-3.042-6.032-3.042c-2.379,0-4.617,1.129-6.031,3.043
		c-7.484,10.127-19.408,16.174-31.896,16.174c-12.497,0-24.405-6.042-31.855-16.163c-1.411-1.916-3.646-3.049-6.025-3.054
		c-2.389,0-4.623,1.124-6.038,3.03c-7.633,10.287-19.262,16.187-31.904,16.187c-12.496,0-24.405-6.042-31.854-16.163
		c-1.412-1.918-3.651-3.052-6.033-3.054c-2.386,0-4.625,1.129-6.039,3.043c-7.483,10.128-19.42,16.174-31.932,16.174
		c-12.464,0-24.375-6.047-31.864-16.176c-1.415-1.913-3.652-3.041-6.032-3.041s-4.617,1.13-6.031,3.043
		C31.8,428.321,20.175,434.217,7.5,434.217c-4.142,0-7.5,3.357-7.5,7.5s3.358,7.5,7.5,7.5c14.17,0,27.804-5.631,37.928-15.386
		c10.123,9.756,23.744,15.386,37.894,15.386c14.186,0,27.828-5.627,37.955-15.379c10.102,9.751,23.725,15.379,37.903,15.379
		c14.375,0,27.787-5.511,37.932-15.366c10.101,9.743,23.719,15.366,37.891,15.366c14.16,0,27.784-5.622,37.906-15.366
		c10.123,9.855,23.528,15.366,37.915,15.366c14.169,0,27.803-5.631,37.927-15.386c10.124,9.755,23.757,15.386,37.928,15.386
		c14.178,0,27.8-5.627,37.902-15.378c10.124,9.75,23.754,15.378,37.919,15.378c4.142,0,7.5-3.357,7.5-7.5
		S466.642,434.217,462.5,434.217z"/>
	<path d="M7.5,385c14.17,0,27.804-5.631,37.928-15.386c5.716,5.509,12.548,9.7,19.96,12.307c0.36,0.153,0.737,0.271,1.123,0.367
		C71.894,384.052,77.562,385,83.322,385c5.769,0,11.444-0.945,16.833-2.706c0.373-0.094,0.738-0.207,1.086-0.354
		c7.445-2.604,14.304-6.799,20.036-12.319C131.379,379.372,145.002,385,159.18,385c14.375,0,27.787-5.511,37.932-15.366
		c5.706,5.504,12.536,9.692,19.954,12.295c0.364,0.155,0.745,0.274,1.136,0.371c5.378,1.757,11.041,2.7,16.801,2.7
		c5.75,0,11.407-0.942,16.782-2.696c0.399-0.098,0.789-0.22,1.16-0.379c7.415-2.604,14.248-6.789,19.964-12.292
		C283.032,379.489,296.437,385,310.824,385c14.169,0,27.803-5.631,37.927-15.386C358.875,379.369,372.508,385,386.679,385
		c14.178,0,27.8-5.627,37.902-15.378C434.705,379.372,448.335,385,462.5,385c4.142,0,7.5-3.357,7.5-7.5s-3.358-7.5-7.5-7.5
		c-12.674,0-24.3-5.896-31.896-16.174c-1.414-1.914-3.652-3.043-6.032-3.043c-2.389,0.002-4.628,1.136-6.04,3.054
		C411.083,363.958,399.175,370,386.679,370c-12.489,0-24.412-6.046-31.896-16.174c-1.414-1.914-3.652-3.043-6.032-3.043
		s-4.618,1.129-6.032,3.043C335.235,363.953,323.312,370,310.824,370c-12.65,0-24.264-5.896-31.863-16.175
		c-1.415-1.913-3.653-3.042-6.032-3.042c-2.379,0-4.617,1.129-6.031,3.043c-2.635,3.566-5.829,6.613-9.396,9.081V119.121
		c0-29.41,23.927-53.338,53.338-53.338s53.338,23.928,53.338,53.338c0,12.406,10.093,22.5,22.5,22.5s22.5-10.094,22.5-22.5
		c0-54.224-44.114-98.338-98.338-98.338c-54.224,0-98.338,44.114-98.338,98.338v81.662h-106.68v-81.662
		c0-29.41,23.927-53.338,53.338-53.338c12.835,0,25.254,4.66,34.97,13.122c3.123,2.723,7.861,2.396,10.582-0.729
		c2.72-3.123,2.394-7.861-0.73-10.581c-12.447-10.841-28.365-16.812-44.821-16.812c-37.682,0-68.338,30.656-68.338,68.338v81.662
		h-15v-81.662c0-45.953,37.385-83.338,83.338-83.338c18.348,0,35.767,5.88,50.373,17.003c3.293,2.51,8,1.872,10.511-1.423
		c2.509-3.295,1.873-8.001-1.423-10.511c-17.24-13.13-37.802-20.069-59.461-20.069c-54.224,0-98.338,44.114-98.338,98.338v243.764
		c-3.552-2.465-6.735-5.504-9.364-9.061c-1.415-1.913-3.652-3.041-6.032-3.041s-4.617,1.13-6.031,3.043
		C31.8,364.104,20.175,370,7.5,370c-4.142,0-7.5,3.357-7.5,7.5S3.358,385,7.5,385z M203.147,353.837
		c-1.411-1.916-3.646-3.049-6.025-3.054c-2.389,0-4.623,1.124-6.038,3.03C183.451,364.101,171.822,370,159.18,370
		c-12.496,0-24.405-6.042-31.854-16.163c-1.412-1.918-3.651-3.052-6.033-3.054c-2.386,0-4.625,1.129-6.039,3.043
		c-2.643,3.577-5.849,6.632-9.432,9.104v-42.146h106.68v42.12C208.947,360.438,205.767,357.396,203.147,353.837z M212.502,245.783
		v30h-106.68v-30H212.502z M90.822,275.783h-15v-30h15V275.783z M75.822,290.783h136.68v15H75.822V290.783z M227.502,119.121
		c0-45.953,37.385-83.338,83.338-83.338c45.953,0,83.338,37.385,83.338,83.338c0,4.136-3.365,7.5-7.5,7.5
		c-4.136,0-7.5-3.364-7.5-7.5c0-37.682-30.656-68.338-68.338-68.338c-37.682,0-68.338,30.656-68.338,68.338v250.136
		c-2.456,0.481-4.965,0.743-7.5,0.743c-2.536,0-5.045-0.261-7.5-0.743V119.121z M212.502,215.783v15H75.822v-15H212.502z
		 M75.822,320.783h15v48.476c-2.456,0.48-4.965,0.741-7.5,0.741c-2.535,0-5.044-0.263-7.5-0.746V320.783z"/>
</g>
<g>
</g>
<g>
</g>
<g>
</g>
<g>
</g>
<g>
</g>
<g>
</g>
<g>
</g>
<g>
</g>
<g>
</g>
<g>
</g>
<g>
</g>
<g>
</g>
<g>
</g>
<g>
</g>
<g>
</g>
</svg>
