<?xml version="1.0" encoding="iso-8859-1"?>
<!-- Generator: Adobe Illustrator 19.0.0, SVG Export Plug-In . SVG Version: 6.00 Build 0)  -->
<svg version="1.1" id="Capa_1" xmlns="http://www.w3.org/2000/svg" xmlns:xlink="http://www.w3.org/1999/xlink" x="0px" y="0px"
	 viewBox="0 0 60.025 60.025" style="enable-background:new 0 0 60.025 60.025;" xml:space="preserve">
<g>
	<g>
		<path d="M56.612,19.525l-26-19.3c-0.4-0.3-0.8-0.3-1.2,0l-25.3,18.8h-0.1v0.1l-0.6,0.4c-0.3,0.2-0.4,0.5-0.4,0.8v3.7
			c0,0.6,0.4,1,1,1h3v19v8v4c0,0.6,0.4,1,1,1h10v2c0,0.6,0.4,1,1,1h5c0.6,0,1-0.4,1-1v-5h16v2c0,0.6,0.4,1,1,1h10c0.6,0,1-0.4,1-1
			v-4v-8v-19h3c0.6,0,1-0.4,1-1v-3.7C57.012,20.025,56.913,19.725,56.612,19.525z M9.012,55.025v-3v-7h2v4h2v-4h2v4h2v-4h1v10H9.012
			z M23.012,58.025h-3v-2v-12v-2h3v5v6V58.025z M51.012,55.025h-8v-2c0-0.6-0.4-1-1-1h-17v-4h16v2h2v-3v-2h8v7V55.025z
			 M41.012,34.025h6v4h-6V34.025z M39.012,38.025h-6v-4h6V38.025z M51.012,43.025h-2v-10c0-0.6-0.4-1-1-1h-16c-0.6,0-1,0.4-1,1v11h2
			v-4h6v2h2v-2h6v3h-5c-0.6,0-1,0.4-1,1v2h-16v-5c0-0.6-0.4-1-1-1h-5c-0.6,0-1,0.4-1,1v2h-9v-18h42V43.025z M55.012,23.025h-3h-44
			h-3v-2h40v-2h-37.6l22.6-16.8l25,18.6V23.025z"/>
		<rect x="28.012" y="9.025" width="4" height="2"/>
		<rect x="25.012" y="13.025" width="10" height="2"/>
		<rect x="11.012" y="27.025" width="2" height="2"/>
		<rect x="15.012" y="27.025" width="2" height="2"/>
		<rect x="19.012" y="27.025" width="2" height="2"/>
		<rect x="23.012" y="27.025" width="2" height="2"/>
		<rect x="27.012" y="27.025" width="2" height="2"/>
		<rect x="31.012" y="27.025" width="2" height="2"/>
		<rect x="35.012" y="27.025" width="2" height="2"/>
		<rect x="39.012" y="27.025" width="2" height="2"/>
		<rect x="43.012" y="27.025" width="2" height="2"/>
		<rect x="47.012" y="27.025" width="2" height="2"/>
		<path d="M13.012,34.025h14v10h2v-11c0-0.6-0.4-1-1-1h-16c-0.6,0-1,0.4-1,1v7h2V34.025z"/>
	</g>
</g>
<g>
</g>
<g>
</g>
<g>
</g>
<g>
</g>
<g>
</g>
<g>
</g>
<g>
</g>
<g>
</g>
<g>
</g>
<g>
</g>
<g>
</g>
<g>
</g>
<g>
</g>
<g>
</g>
<g>
</g>
</svg>
